<svg width="13" height="13" viewBox="0 0 13 13" fill="none" xmlns="http://www.w3.org/2000/svg">
<path d="M9.23599 0H3.76634C3.24288 0 2.82031 0.424459 2.82031 0.946979V12.054C2.82031 12.576 3.24288 13 3.76634 13H9.23599C9.75851 13 10.182 12.576 10.182 12.054V0.946979C10.182 0.424459 9.75851 0 9.23599 0ZM5.15152 0.575104H7.85176C7.91998 0.575104 7.9754 0.676955 7.9754 0.802966C7.9754 0.928978 7.91998 1.0313 7.85176 1.0313H5.15152C5.08283 1.0313 5.02835 0.928978 5.02835 0.802966C5.02835 0.676955 5.08283 0.575104 5.15152 0.575104ZM6.50164 12.0653C6.16861 12.0653 5.89764 11.7944 5.89764 11.4609C5.89764 11.1274 6.16861 10.8573 6.50164 10.8573C6.83372 10.8573 7.10469 11.1274 7.10469 11.4609C7.10469 11.7944 6.83372 12.0653 6.50164 12.0653ZM9.47333 9.99563H3.52948V1.59788H9.47333V9.99563Z" fill="#707070"/>
</svg>
