<svg width="145" height="143" viewBox="0 0 145 143" fill="none" xmlns="http://www.w3.org/2000/svg">
<g clip-path="url(#clip0_12015_10985)">
<path d="M20.8216 124.1C19.1016 124.65 21.0816 125.78 19.0316 126.82C16.9816 127.86 5.8516 125.91 13.2716 130.82C20.6916 135.73 19.9316 126.42 41.8116 134.82C63.6916 143.22 79.6916 131.82 98.7516 135.08C117.812 138.34 149.172 130.03 138.302 125.89C127.432 121.75 36.1816 119.18 20.8216 124.1Z" fill="#EAB213"/>
<path d="M122.111 35.5C121.971 35.5 121.832 35.5277 121.703 35.5816C121.574 35.6355 121.456 35.7145 121.358 35.814C121.259 35.9135 121.181 36.0315 121.129 36.1613C121.076 36.291 121.05 36.43 121.051 36.57V55.04C121.051 55.3211 121.163 55.5907 121.361 55.7895C121.56 55.9883 121.83 56.1 122.111 56.1C122.392 56.1 122.662 55.9883 122.86 55.7895C123.059 55.5907 123.171 55.3211 123.171 55.04V36.57C123.172 36.43 123.146 36.291 123.093 36.1613C123.04 36.0315 122.963 35.9135 122.864 35.814C122.765 35.7145 122.648 35.6355 122.519 35.5816C122.39 35.5277 122.251 35.5 122.111 35.5Z" fill="#383B4B"/>
<path d="M46.7807 22.2891C46.5004 22.2917 46.2323 22.4042 46.0341 22.6024C45.8358 22.8006 45.7233 23.0687 45.7207 23.3491V27.8391C45.7464 28.1037 45.8697 28.3493 46.0666 28.528C46.2634 28.7067 46.5198 28.8057 46.7857 28.8057C47.0516 28.8057 47.308 28.7067 47.5049 28.528C47.7017 28.3493 47.825 28.1037 47.8507 27.8391V23.3491C47.8481 23.067 47.7342 22.7974 47.5338 22.5989C47.3334 22.4004 47.0628 22.2891 46.7807 22.2891Z" fill="#383B4B"/>
<path d="M47.5414 32.5977C47.0508 32.5977 46.5802 32.7926 46.2333 33.1395C45.8863 33.4865 45.6914 33.957 45.6914 34.4477V42.2477C45.6914 42.7383 45.8863 43.2089 46.2333 43.5558C46.5802 43.9027 47.0508 44.0977 47.5414 44.0977C48.0321 44.0977 48.5026 43.9027 48.8495 43.5558C49.1965 43.2089 49.3914 42.7383 49.3914 42.2477V34.4477C49.3914 33.957 49.1965 33.4865 48.8495 33.1395C48.5026 32.7926 48.0321 32.5977 47.5414 32.5977Z" fill="#383B4B"/>
<path d="M47.5414 43.8692C47.2989 43.8679 47.0586 43.9145 46.8342 44.0063C46.6098 44.0982 46.4058 44.2335 46.2339 44.4045C46.0619 44.5755 45.9255 44.7788 45.8324 45.0027C45.7393 45.2266 45.6914 45.4667 45.6914 45.7092V53.5192C45.6914 54.0098 45.8863 54.4804 46.2333 54.8273C46.5802 55.1743 47.0508 55.3692 47.5414 55.3692C48.0321 55.3692 48.5026 55.1743 48.8495 54.8273C49.1965 54.4804 49.3914 54.0098 49.3914 53.5192V45.7292C49.3941 45.485 49.3481 45.2428 49.2562 45.0166C49.1643 44.7904 49.0283 44.5847 48.8561 44.4116C48.6839 44.2385 48.479 44.1013 48.2533 44.0082C48.0276 43.9151 47.7856 43.8678 47.5414 43.8692Z" fill="#383B4B"/>
<path d="M122.542 12.5587V127.879H46.4219V12.5587C46.4219 9.48489 47.643 6.53692 49.8165 4.36337C51.99 2.18983 54.938 0.96875 58.0119 0.96875H111.012C114.075 0.984609 117.008 2.21269 119.168 4.38452C121.329 6.55635 122.542 9.49525 122.542 12.5587Z" fill="#100959"/>
<g style="mix-blend-mode:soft-light" opacity="0.2">
<path d="M47.5419 17.3587C48.9043 16.5043 49.8963 15.1696 50.3219 13.6187C50.8804 11.8407 51.5278 10.0918 52.2619 8.37874C52.6605 7.55992 53.1833 6.8077 53.8119 6.14874C54.5072 5.48246 55.3124 4.94119 56.1919 4.54875C58.2521 3.65855 60.4778 3.21547 62.7219 3.24875C67.2419 3.18875 71.7219 4.24875 76.1819 4.58875C79.7019 4.87875 83.2318 5.00875 86.7618 4.94875C90.758 4.90606 94.7443 4.54155 98.6819 3.85875C102.012 3.31322 105.259 2.34193 108.342 0.96875H58.0119C56.489 0.968749 54.9811 1.26887 53.5743 1.85194C52.1674 2.43502 50.8893 3.28962 49.813 4.36691C48.7366 5.4442 47.8831 6.72305 47.3012 8.13037C46.7194 9.53769 46.4206 11.0459 46.4219 12.5687V17.6687C46.8135 17.6492 47.196 17.5434 47.5419 17.3587Z" fill="#F2FAFF"/>
</g>
<g style="mix-blend-mode:multiply" opacity="0.35">
<path d="M122.542 109.348V127.878H121.682C121.755 127.251 121.805 126.621 121.832 125.988C122.012 122.758 121.832 119.518 121.832 116.288C121.839 113.957 122.077 111.632 122.542 109.348Z" fill="#202234"/>
</g>
<path d="M118.312 12.8973V127.897H50.6621V12.8973C50.6621 11.8958 50.8595 10.9041 51.2431 9.979C51.6267 9.05384 52.1888 8.21337 52.8975 7.50565C53.6061 6.79794 54.4473 6.23687 55.373 5.85451C56.2986 5.47216 57.2906 5.27604 58.2921 5.27735H110.692C111.693 5.27735 112.684 5.47444 113.608 5.85738C114.533 6.24032 115.373 6.80161 116.08 7.50919C116.788 8.21677 117.349 9.0568 117.732 9.9813C118.115 10.9058 118.312 11.8967 118.312 12.8973Z" fill="url(#paint0_linear_12015_10985)"/>
<path d="M92.632 45.85L85.9819 51.41L95.502 57.93L118.002 37.71L117.952 46.33L98.0219 64.24L80.512 83.99L117.582 107.55L117.532 115.08L77.372 89.57L50.752 118.07L50.812 107.91L90.9819 62.57L80.882 55.65L50.982 80.58L51.032 72.24L81.492 46.84L68.382 39.36L71.512 33.8L86.722 42.48L118.142 16.25L118.092 24.6L92.632 45.85Z" fill="#EAB213"/>
<g style="mix-blend-mode:lighten">
<path d="M62.1113 76.0477L80.9113 59.5977L87.3213 63.9877L68.6913 82.8077L62.1113 76.0477Z" fill="#C8D9FB"/>
</g>
<path d="M65.332 45.6402C65.332 46.0402 67.052 46.3702 69.172 46.3702C71.292 46.3702 73.012 46.0402 73.012 45.6402C73.012 45.2402 71.292 44.9102 69.172 44.9102C67.052 44.9102 65.332 45.2402 65.332 45.6402Z" fill="white"/>
<path d="M63.5411 34.409C63.5411 34.409 64.7711 36.719 65.0011 37.019C65.0011 37.019 68.3611 41.839 69.0711 45.429C69.7611 41.839 73.0111 37.019 73.0111 37.019C73.2311 36.719 74.4611 34.399 74.4611 34.399C75.0727 33.0925 75.3114 31.6425 75.1511 30.209C74.8142 28.8157 74.0289 27.5716 72.9159 26.6682C71.8029 25.7648 70.4239 25.2521 68.9911 25.209C67.5578 25.2505 66.178 25.7626 65.0647 26.6662C63.9514 27.5699 63.1665 28.8149 62.8311 30.209C62.6703 31.6478 62.9163 33.1029 63.5411 34.409Z" fill="#E05778"/>
<g style="mix-blend-mode:soft-light" opacity="0.2">
<path d="M118.312 107.41V116.83C114.578 120.497 110.858 124.164 107.152 127.83H97.8516L118.312 107.41Z" fill="#F2FAFF"/>
</g>
<g style="mix-blend-mode:soft-light" opacity="0.2">
<path d="M107.852 5.27734H102.182L50.6719 56.7973V62.2973C69.6652 43.2507 88.7252 24.244 107.852 5.27734Z" fill="#F2FAFF"/>
</g>
<g style="mix-blend-mode:soft-light" opacity="0.2">
<path d="M118.312 24.5991V12.8991C118.312 10.9099 117.534 8.99957 116.143 7.57721C114.753 6.15485 112.861 5.3335 110.872 5.28906C111.109 5.60934 111.219 6.00563 111.182 6.40224C111.145 6.79884 110.964 7.16797 110.672 7.43907C90.5919 27.3191 70.5919 47.2691 50.6719 67.2891V92.2891C73.2052 69.7224 95.7519 47.1591 118.312 24.5991Z" fill="#F2FAFF"/>
</g>
<path d="M96.5415 125.439C96.5415 125.439 95.8415 120.369 97.2315 120.869C98.6215 121.369 98.0115 123.399 96.5415 125.439Z" fill="#7AC094"/>
<path d="M96.4824 125.398C96.4824 125.398 99.3224 120.398 101.292 122.108C103.262 123.818 96.4824 125.398 96.4824 125.398Z" fill="#B8DEBF"/>
<path d="M100.482 128.148H75.9023L76.2523 126.928L77.0824 124.008C77.3638 123.011 78.0033 122.154 78.8781 121.6C79.7529 121.047 80.8014 120.836 81.8224 121.008L82.8824 121.198H83.1223C83.3564 121.196 83.5864 121.136 83.7921 121.025C83.9979 120.913 84.1731 120.753 84.3024 120.558C84.717 119.934 85.2911 119.433 85.965 119.107C86.639 118.78 87.388 118.64 88.1343 118.702C88.8807 118.763 89.5969 119.023 90.2086 119.455C90.8202 119.887 91.305 120.475 91.6124 121.158L91.7924 121.568C91.9473 121.909 92.2308 122.175 92.5811 122.308C92.9314 122.441 93.32 122.43 93.6624 122.278L94.7224 121.798C95.0119 121.668 95.3366 121.638 95.6448 121.714C95.9529 121.791 96.2267 121.968 96.4224 122.218C96.569 122.403 96.6654 122.624 96.7023 122.858L96.8624 123.778C96.8956 123.992 96.9815 124.195 97.1124 124.368L97.1824 124.458C97.3945 124.703 97.6837 124.869 98.0024 124.928C98.0887 124.938 98.176 124.938 98.2623 124.928C98.5399 124.924 98.8107 124.841 99.0424 124.688C99.3127 124.512 99.6355 124.435 99.9562 124.469C100.277 124.504 100.576 124.648 100.802 124.878L101.512 125.588C101.741 125.787 101.903 126.053 101.974 126.348C102.045 126.643 102.022 126.953 101.909 127.234C101.796 127.516 101.597 127.755 101.342 127.919C101.086 128.083 100.786 128.163 100.482 128.148Z" fill="#5CA88D"/>
<path opacity="0.1" d="M98.3124 128.149H75.9023L76.2523 126.929C76.8142 126.42 77.4843 126.046 78.2119 125.835C78.9395 125.624 79.7056 125.581 80.4524 125.709L81.2823 125.849L81.7224 125.929C81.8188 125.938 81.9159 125.938 82.0124 125.929C82.221 125.933 82.4283 125.896 82.6223 125.819C82.9498 125.695 83.2298 125.471 83.4224 125.179C83.7018 124.769 84.0386 124.402 84.4224 124.089C84.5623 123.97 84.7092 123.86 84.8624 123.759C85.6607 123.231 86.5952 122.946 87.5524 122.939C88.1029 122.926 88.6512 123.011 89.1724 123.189C89.8352 123.403 90.4452 123.756 90.9623 124.223C91.4793 124.69 91.8917 125.261 92.1724 125.899L92.3923 126.379C92.5779 126.787 92.9175 127.106 93.3372 127.265C93.7568 127.425 94.2224 127.411 94.6324 127.229L95.2723 126.939L95.9023 126.659C96.1708 126.534 96.4683 126.486 96.7623 126.519C97.1331 126.553 97.4821 126.709 97.7552 126.962C98.0282 127.215 98.21 127.552 98.2723 127.919L98.3124 128.149Z" fill="white"/>
<path d="M81.0914 123.82C81.1004 123.876 81.0972 123.933 81.082 123.987C81.0668 124.042 81.04 124.092 81.0034 124.135C80.9668 124.178 80.9212 124.213 80.87 124.236C80.8187 124.26 80.7629 124.272 80.7064 124.272C80.6499 124.272 80.5941 124.26 80.5428 124.236C80.4916 124.213 80.4461 124.178 80.4094 124.135C80.3728 124.092 80.346 124.042 80.3308 123.987C80.3156 123.933 80.3124 123.876 80.3214 123.82C80.3362 123.728 80.3831 123.645 80.4536 123.585C80.5241 123.525 80.6138 123.492 80.7064 123.492C80.7991 123.492 80.8887 123.525 80.9592 123.585C81.0298 123.645 81.0766 123.728 81.0914 123.82Z" fill="#7AC094"/>
<path d="M94.2717 125.66C94.2731 125.706 94.265 125.753 94.248 125.797C94.2311 125.84 94.2055 125.88 94.1729 125.914C94.1402 125.947 94.1012 125.974 94.058 125.992C94.0149 126.01 93.9686 126.02 93.9218 126.02C93.8701 126.028 93.8173 126.026 93.7668 126.012C93.7163 125.998 93.6695 125.973 93.6295 125.94C93.5896 125.906 93.5574 125.864 93.5354 125.816C93.5134 125.769 93.502 125.717 93.502 125.665C93.502 125.612 93.5134 125.561 93.5354 125.513C93.5574 125.466 93.5896 125.424 93.6295 125.39C93.6695 125.356 93.7163 125.331 93.7668 125.317C93.8173 125.304 93.8701 125.301 93.9218 125.31C93.9677 125.31 94.0132 125.319 94.0557 125.336C94.0981 125.354 94.1367 125.38 94.1693 125.412C94.2018 125.445 94.2275 125.483 94.2451 125.526C94.2627 125.568 94.2717 125.614 94.2717 125.66Z" fill="#B8DEBF"/>
<path d="M89.372 121.58C89.372 121.74 89.3242 121.897 89.2347 122.031C89.1453 122.164 89.0182 122.268 88.8696 122.329C88.721 122.39 88.5576 122.405 88.4002 122.373C88.2428 122.341 88.0986 122.263 87.9857 122.149C87.8728 122.034 87.7964 121.889 87.7663 121.731C87.7362 121.574 87.7537 121.41 87.8165 121.263C87.8793 121.115 87.9847 120.989 88.1192 120.901C88.2537 120.813 88.4114 120.768 88.572 120.77C88.7851 120.772 88.9885 120.859 89.1383 121.01C89.288 121.162 89.372 121.366 89.372 121.58Z" fill="#B8DEBF"/>
<path d="M86.5424 128.088C86.5424 128.088 83.3624 124.088 84.8124 123.788C86.2624 123.488 86.7024 125.588 86.5424 128.088Z" fill="#7AC094"/>
<path d="M86.541 128.089C86.541 128.089 88.541 122.689 90.761 124.089C92.981 125.489 86.541 128.089 86.541 128.089Z" fill="#B8DEBF"/>
<path d="M86.5418 128.087C86.5418 128.087 79.1318 127.187 81.0018 126.007C82.8718 124.827 86.5418 128.087 86.5418 128.087Z" fill="#B8DEBF"/>
<path d="M50.5417 124.347C50.5417 124.347 51.5417 117.227 49.5417 117.927C47.5417 118.627 48.4617 121.487 50.5417 124.347Z" fill="#7AC094"/>
<path d="M50.6207 124.279C50.6207 124.279 46.6207 117.279 43.8707 119.669C41.1207 122.059 50.6207 124.279 50.6207 124.279Z" fill="#B8DEBF"/>
<path d="M44.9925 128.148H79.5425L79.0425 126.428L77.8825 122.348C77.4844 120.954 76.5857 119.755 75.3587 118.982C74.1316 118.209 72.6624 117.915 71.2325 118.158L69.7425 118.418H69.4125C69.084 118.418 68.7607 118.336 68.4712 118.181C68.1817 118.026 67.9348 117.802 67.7525 117.528C67.169 116.656 66.3628 115.955 65.4175 115.498C64.4721 115.042 63.4219 114.846 62.3756 114.932C61.3292 115.017 60.3248 115.381 59.4663 115.985C58.6078 116.59 57.9263 117.412 57.4925 118.368L57.2425 118.938C57.0242 119.415 56.6272 119.787 56.1372 119.974C55.6471 120.161 55.1031 120.148 54.6225 119.938L53.1325 119.278C52.7266 119.099 52.2724 119.059 51.8415 119.166C51.4106 119.273 51.0275 119.52 50.7525 119.868C50.5477 120.127 50.4103 120.433 50.3525 120.758L50.1325 122.048C50.0819 122.351 49.9622 122.639 49.7825 122.888L49.6825 123.008C49.3649 123.374 48.9252 123.613 48.4452 123.679C47.9651 123.745 47.4773 123.635 47.0725 123.368C46.6907 123.128 46.2389 123.024 45.7905 123.073C45.3421 123.122 44.9235 123.321 44.6025 123.638L43.6025 124.638C43.2892 124.91 43.0679 125.272 42.9694 125.675C42.8709 126.077 42.8999 126.501 43.0526 126.886C43.2052 127.272 43.4739 127.6 43.8215 127.826C44.169 128.052 44.5783 128.165 44.9925 128.148Z" fill="#5CA88D"/>
<path opacity="0.1" d="M48.041 128.149H79.541L79.041 126.429C78.2526 125.717 77.3125 125.194 76.292 124.9C75.2716 124.605 74.1974 124.547 73.151 124.729L71.991 124.929L71.361 125.029C71.2279 125.039 71.0942 125.039 70.961 125.029C70.6711 125.029 70.3832 124.979 70.111 124.879C69.6488 124.7 69.2538 124.382 68.981 123.969C68.6023 123.397 68.1406 122.885 67.611 122.449C67.4169 122.284 67.2132 122.13 67.001 121.989C65.8776 121.25 64.5653 120.851 63.221 120.839C62.4475 120.827 61.6773 120.942 60.941 121.179C60.0042 121.476 59.1416 121.97 58.4105 122.627C57.6794 123.284 57.0966 124.089 56.701 124.989L56.391 125.659C56.2624 125.944 56.0789 126.201 55.851 126.415C55.623 126.629 55.3552 126.796 55.0626 126.907C54.7701 127.017 54.4586 127.069 54.1461 127.059C53.8335 127.049 53.526 126.978 53.241 126.849L52.341 126.449L51.471 126.059C51.0925 125.886 50.6749 125.817 50.261 125.859C49.7354 125.908 49.2413 126.132 48.8572 126.494C48.4732 126.857 48.2211 127.337 48.141 127.859L48.041 128.149Z" fill="white"/>
<path d="M72.2109 122.079C72.2109 122.186 72.2426 122.29 72.3019 122.379C72.3613 122.468 72.4456 122.537 72.5443 122.578C72.643 122.619 72.7515 122.63 72.8563 122.609C72.961 122.588 73.0572 122.536 73.1328 122.461C73.2083 122.385 73.2597 122.289 73.2805 122.184C73.3014 122.08 73.2907 121.971 73.2498 121.872C73.2089 121.774 73.1397 121.689 73.0509 121.63C72.9621 121.571 72.8577 121.539 72.7509 121.539C72.6077 121.539 72.4703 121.596 72.3691 121.697C72.2678 121.799 72.2109 121.936 72.2109 122.079Z" fill="#7AC094"/>
<path d="M53.711 124.658C53.7111 124.758 53.7406 124.855 53.796 124.937C53.8514 125.02 53.9301 125.084 54.0221 125.121C54.114 125.159 54.215 125.168 54.3123 125.148C54.4096 125.128 54.4986 125.079 54.5681 125.008C54.6376 124.937 54.6845 124.847 54.7026 124.75C54.7208 124.652 54.7094 124.551 54.67 124.46C54.6306 124.369 54.565 124.291 54.4815 124.238C54.398 124.184 54.3003 124.156 54.201 124.158C54.1358 124.158 54.0713 124.171 54.0112 124.197C53.9511 124.222 53.8966 124.259 53.851 124.305C53.8053 124.352 53.7694 124.407 53.7454 124.468C53.7214 124.528 53.7097 124.593 53.711 124.658Z" fill="#B8DEBF"/>
<path d="M60.5411 118.929C60.5391 119.155 60.6045 119.377 60.729 119.566C60.8535 119.755 61.0314 119.903 61.2402 119.99C61.4489 120.078 61.6789 120.101 61.901 120.057C62.123 120.014 62.3271 119.905 62.4871 119.745C62.6471 119.585 62.7559 119.381 62.7996 119.159C62.8433 118.937 62.8198 118.707 62.7323 118.498C62.6448 118.289 62.4971 118.111 62.3081 117.987C62.1192 117.862 61.8974 117.797 61.6711 117.799C61.3722 117.801 61.0863 117.921 60.8749 118.133C60.6636 118.344 60.5437 118.63 60.5411 118.929Z" fill="#B8DEBF"/>
<path d="M64.6321 128.06C64.6321 128.06 69.1021 122.43 67.0621 122.06C65.0221 121.69 64.3421 124.56 64.6321 128.06Z" fill="#7AC094"/>
<path d="M64.6319 128.06C64.6319 128.06 61.812 120.48 58.702 122.43C55.592 124.38 64.6319 128.06 64.6319 128.06Z" fill="#B8DEBF"/>
<path d="M64.6309 128.059C64.6309 128.059 75.0208 126.799 72.4008 125.149C69.7808 123.499 64.6309 128.059 64.6309 128.059Z" fill="#B8DEBF"/>
<path d="M129.541 125.439C129.541 125.439 128.841 120.369 130.231 120.869C131.621 121.369 131.021 123.399 129.541 125.439Z" fill="#7AC094"/>
<path d="M129.482 125.398C129.482 125.398 132.332 120.398 134.302 122.108C136.272 123.818 129.482 125.398 129.482 125.398Z" fill="#B8DEBF"/>
<path d="M133.542 128.148H108.912L109.262 126.928L110.092 124.008C110.374 123.011 111.013 122.154 111.888 121.6C112.763 121.047 113.811 120.836 114.832 121.008L115.892 121.198H116.132C116.366 121.196 116.596 121.136 116.802 121.025C117.008 120.913 117.183 120.753 117.312 120.558C117.727 119.934 118.301 119.433 118.975 119.107C119.649 118.78 120.398 118.64 121.144 118.702C121.89 118.763 122.607 119.023 123.218 119.455C123.83 119.887 124.315 120.475 124.622 121.158L124.802 121.568C124.957 121.909 125.241 122.175 125.591 122.308C125.941 122.441 126.33 122.43 126.672 122.278L127.732 121.798C128.02 121.668 128.343 121.639 128.65 121.716C128.956 121.792 129.228 121.969 129.422 122.218C129.576 122.4 129.676 122.622 129.712 122.858L129.862 123.778C129.899 123.993 129.988 124.196 130.122 124.368L130.192 124.458C130.403 124.705 130.693 124.871 131.012 124.928C131.095 124.937 131.179 124.937 131.262 124.928C131.543 124.925 131.817 124.842 132.052 124.688C132.322 124.512 132.645 124.435 132.966 124.469C133.287 124.504 133.586 124.648 133.812 124.878L134.522 125.588C134.747 125.784 134.907 126.045 134.979 126.335C135.051 126.625 135.033 126.931 134.926 127.21C134.819 127.489 134.629 127.729 134.381 127.896C134.134 128.064 133.841 128.152 133.542 128.148Z" fill="#5CA88D"/>
<path opacity="0.1" d="M131.322 128.149H108.912L109.262 126.929C109.824 126.42 110.494 126.046 111.222 125.835C111.949 125.624 112.715 125.581 113.462 125.709L114.292 125.849L114.732 125.929C114.829 125.938 114.926 125.938 115.022 125.929C115.231 125.932 115.438 125.895 115.632 125.819C115.96 125.695 116.24 125.471 116.432 125.179C116.709 124.767 117.046 124.4 117.432 124.089C117.57 123.968 117.717 123.857 117.872 123.759C118.67 123.231 119.605 122.946 120.562 122.939C121.113 122.926 121.661 123.011 122.182 123.189C122.845 123.403 123.455 123.756 123.972 124.223C124.489 124.69 124.901 125.261 125.182 125.899L125.402 126.379C125.588 126.787 125.927 127.106 126.347 127.265C126.767 127.425 127.232 127.411 127.642 127.229L128.282 126.939L128.902 126.659C129.171 126.536 129.468 126.487 129.762 126.519C130.133 126.551 130.483 126.707 130.757 126.96C131.03 127.214 131.211 127.551 131.272 127.919L131.322 128.149Z" fill="white"/>
<path d="M114.103 123.818C114.103 123.921 114.061 124.02 113.988 124.093C113.915 124.166 113.816 124.208 113.713 124.208C113.621 124.193 113.538 124.146 113.478 124.075C113.418 124.005 113.385 123.915 113.385 123.823C113.385 123.73 113.418 123.64 113.478 123.57C113.538 123.499 113.621 123.452 113.713 123.438C113.814 123.437 113.912 123.477 113.985 123.548C114.058 123.619 114.1 123.716 114.103 123.818Z" fill="#7AC094"/>
<path d="M127.282 125.659C127.284 125.731 127.265 125.802 127.226 125.862C127.187 125.923 127.131 125.971 127.065 125.999C126.999 126.028 126.925 126.036 126.855 126.022C126.784 126.009 126.719 125.974 126.668 125.923C126.617 125.872 126.583 125.807 126.569 125.736C126.555 125.666 126.563 125.592 126.592 125.526C126.62 125.46 126.668 125.404 126.729 125.365C126.789 125.326 126.86 125.307 126.932 125.309C127.024 125.311 127.112 125.349 127.177 125.414C127.242 125.479 127.28 125.567 127.282 125.659Z" fill="#B8DEBF"/>
<path d="M122.381 121.58C122.393 121.693 122.382 121.807 122.347 121.916C122.313 122.025 122.255 122.125 122.179 122.209C122.103 122.294 122.01 122.362 121.906 122.409C121.802 122.455 121.69 122.479 121.576 122.479C121.462 122.479 121.349 122.455 121.245 122.409C121.141 122.362 121.048 122.294 120.972 122.209C120.896 122.125 120.839 122.025 120.804 121.916C120.769 121.807 120.758 121.693 120.771 121.58C120.758 121.466 120.769 121.352 120.804 121.243C120.839 121.135 120.896 121.035 120.972 120.95C121.048 120.865 121.141 120.797 121.245 120.75C121.349 120.704 121.462 120.68 121.576 120.68C121.69 120.68 121.802 120.704 121.906 120.75C122.01 120.797 122.103 120.865 122.179 120.95C122.255 121.035 122.313 121.135 122.347 121.243C122.382 121.352 122.393 121.466 122.381 121.58Z" fill="#B8DEBF"/>
<path d="M119.542 128.088C119.542 128.088 116.352 124.088 117.812 123.788C119.272 123.488 119.712 125.588 119.542 128.088Z" fill="#7AC094"/>
<path d="M119.541 128.089C119.541 128.089 121.541 122.689 123.761 124.089C125.981 125.489 119.541 128.089 119.541 128.089Z" fill="#B8DEBF"/>
<path d="M119.542 128.087C119.542 128.087 112.132 127.187 114.002 126.007C115.872 124.827 119.542 128.087 119.542 128.087Z" fill="#B8DEBF"/>
<path d="M83.5409 124.347C83.5409 124.347 84.5409 117.227 82.5409 117.927C80.5409 118.627 81.4709 121.487 83.5409 124.347Z" fill="#7AC094"/>
<path d="M83.6312 124.279C83.6312 124.279 79.6312 117.279 76.8712 119.669C74.1112 122.059 83.6312 124.279 83.6312 124.279Z" fill="#B8DEBF"/>
<path d="M78.0011 128.148H112.541L112.041 126.428L110.881 122.348C110.483 120.954 109.584 119.755 108.357 118.982C107.13 118.209 105.661 117.915 104.231 118.158L102.741 118.418H102.411C102.083 118.418 101.759 118.336 101.47 118.181C101.18 118.026 100.933 117.802 100.751 117.528C100.168 116.656 99.3614 115.955 98.416 115.498C97.4707 115.042 96.4204 114.846 95.3741 114.932C94.3278 115.017 93.3234 115.381 92.4649 115.985C91.6063 116.59 90.9249 117.412 90.4911 118.368L90.2411 118.938C90.0228 119.415 89.6258 119.787 89.1357 119.974C88.6456 120.161 88.1017 120.148 87.6211 119.938L86.1311 119.278C85.7252 119.099 85.271 119.059 84.8401 119.166C84.4092 119.273 84.026 119.52 83.7511 119.868C83.5463 120.127 83.4089 120.433 83.3511 120.758L83.1311 122.048C83.0805 122.351 82.9607 122.639 82.7811 122.888L82.6811 123.008C82.3635 123.374 81.9238 123.613 81.4437 123.679C80.9637 123.745 80.4759 123.635 80.0711 123.368C79.6893 123.128 79.2375 123.024 78.7891 123.073C78.3407 123.122 77.922 123.321 77.6011 123.638L76.6011 124.638C76.2869 124.91 76.0653 125.273 75.9669 125.677C75.8686 126.081 75.8985 126.505 76.0525 126.891C76.2064 127.277 76.4768 127.606 76.826 127.831C77.1753 128.056 77.5859 128.167 78.0011 128.148Z" fill="#5CA88D"/>
<path opacity="0.1" d="M81.0508 128.149H112.541L112.041 126.429C111.252 125.717 110.312 125.194 109.292 124.9C108.271 124.605 107.197 124.547 106.151 124.729L104.991 124.929L104.361 125.029C104.228 125.039 104.094 125.039 103.961 125.029C103.671 125.029 103.383 124.979 103.111 124.879C102.649 124.7 102.254 124.382 101.981 123.969C101.599 123.399 101.138 122.887 100.611 122.449C100.417 122.284 100.213 122.13 100.001 121.989C98.8774 121.25 97.5651 120.851 96.2208 120.839C95.4473 120.827 94.6771 120.942 93.9408 121.179C93.0028 121.476 92.1387 121.97 91.4059 122.627C90.6732 123.283 90.0886 124.089 89.6908 124.989L89.3907 125.659C89.2622 125.944 89.0787 126.201 88.8508 126.415C88.6228 126.629 88.3549 126.796 88.0624 126.907C87.7698 127.017 87.4584 127.069 87.1458 127.059C86.8333 127.049 86.5257 126.978 86.2408 126.849L85.3408 126.449L84.4708 126.059C84.139 125.908 83.7771 125.836 83.4129 125.847C83.0487 125.859 82.6921 125.954 82.3703 126.125C82.0486 126.296 81.7704 126.538 81.5573 126.834C81.3441 127.129 81.2016 127.47 81.1408 127.829L81.0508 128.149Z" fill="white"/>
<path d="M105.221 122.079C105.221 122.186 105.253 122.291 105.312 122.38C105.372 122.469 105.457 122.538 105.556 122.579C105.656 122.62 105.765 122.63 105.87 122.608C105.975 122.586 106.071 122.534 106.146 122.457C106.221 122.381 106.272 122.284 106.292 122.178C106.311 122.073 106.299 121.964 106.257 121.865C106.214 121.767 106.144 121.683 106.053 121.625C105.963 121.567 105.858 121.537 105.751 121.539C105.609 121.542 105.474 121.6 105.375 121.701C105.276 121.802 105.221 121.938 105.221 122.079Z" fill="#7AC094"/>
<path d="M86.7109 124.66C86.7135 124.792 86.767 124.918 86.8602 125.011C86.9534 125.104 87.0791 125.158 87.2109 125.16C87.3435 125.16 87.4707 125.107 87.5645 125.014C87.6583 124.92 87.7109 124.793 87.7109 124.66C87.7109 124.528 87.6583 124.4 87.5645 124.307C87.4707 124.213 87.3435 124.16 87.2109 124.16C87.0783 124.16 86.9512 124.213 86.8574 124.307C86.7637 124.4 86.7109 124.528 86.7109 124.66Z" fill="#B8DEBF"/>
<path d="M93.5918 118.929C93.5918 119.229 93.7109 119.516 93.9228 119.728C94.1347 119.94 94.4221 120.059 94.7218 120.059C95.0215 120.059 95.3089 119.94 95.5208 119.728C95.7327 119.516 95.8518 119.229 95.8518 118.929C95.8518 118.629 95.7327 118.342 95.5208 118.13C95.3089 117.918 95.0215 117.799 94.7218 117.799C94.4221 117.799 94.1347 117.918 93.9228 118.13C93.7109 118.342 93.5918 118.629 93.5918 118.929Z" fill="#B8DEBF"/>
<path d="M97.6414 128.06C97.6414 128.06 102.101 122.43 100.071 122.06C98.0414 121.69 97.3514 124.56 97.6414 128.06Z" fill="#7AC094"/>
<path d="M97.6417 128.06C97.6417 128.06 94.8217 120.48 91.7117 122.43C88.6017 124.38 97.6417 128.06 97.6417 128.06Z" fill="#B8DEBF"/>
<path d="M97.6406 128.059C97.6406 128.059 108.031 126.799 105.411 125.149C102.791 123.499 97.6406 128.059 97.6406 128.059Z" fill="#B8DEBF"/>
<g clip-path="url(#clip1_12015_10985)">
<path d="M22.2531 110.41L31.9218 124.606L35.2951 125.901V126.43C35.2951 126.43 22.1551 125.744 20.0173 125.606C17.9868 125.392 16.0739 124.549 14.5456 123.195C13.0355 121.959 13.4277 117.116 14.5456 114.94C15.8642 112.716 17.827 110.945 20.1742 109.861L22.2531 110.41Z" fill="#3A3B3B"/>
<g style="mix-blend-mode:screen">
<path d="M22.2529 110.41L20.5859 109.9L31.3921 126.175L35.3145 126.371V125.842L31.9217 124.606L22.2529 110.41Z" fill="#3A3B3B"/>
</g>
<path d="M14.6433 106.038C14.6546 106.133 14.6282 106.23 14.5696 106.307C14.5111 106.384 14.425 106.435 14.3295 106.449H14.2119C14.1654 106.458 14.1178 106.457 14.0718 106.446C14.0257 106.436 13.9822 106.417 13.9438 106.389C13.9054 106.362 13.8729 106.327 13.8482 106.287C13.8235 106.247 13.8071 106.202 13.8 106.155L12.0938 95.861C12.0765 95.7649 12.0976 95.6659 12.1526 95.5852C12.2077 95.5045 12.2922 95.4487 12.3879 95.4297H12.5056C12.6287 95.4322 12.7479 95.4733 12.8465 95.5472C12.945 95.6211 13.0178 95.724 13.0547 95.8415L14.6433 106.038Z" fill="#D1D1D1"/>
<g style="mix-blend-mode:multiply" opacity="0.5">
<path d="M12.7611 95.5078C12.6947 95.5429 12.6404 95.5972 12.6054 95.6637C12.5704 95.7302 12.5563 95.8057 12.565 95.8804L14.2713 106.174C14.2925 106.27 14.3484 106.354 14.4282 106.41C14.4983 106.378 14.5567 106.325 14.5953 106.258C14.6339 106.191 14.6509 106.114 14.6439 106.037L13.0553 95.8607C13.0335 95.7847 12.9961 95.714 12.9455 95.6532C12.8948 95.5925 12.832 95.5429 12.7611 95.5078Z" fill="#D1D1D1"/>
</g>
<path d="M13.4291 95.5071C13.4487 95.6129 13.447 95.7215 13.4239 95.8265C13.4008 95.9315 13.3569 96.0309 13.2947 96.1186C13.2325 96.2064 13.1534 96.2808 13.0619 96.3374C12.9705 96.3941 12.8686 96.4318 12.7623 96.4483H12.4877C12.2726 96.477 12.0548 96.4216 11.8795 96.2938C11.7041 96.166 11.5848 95.9755 11.5464 95.762L7.722 72.6248C7.70247 72.5176 7.70494 72.4076 7.72924 72.3014C7.75354 72.1952 7.79917 72.0951 7.86337 72.007C7.92756 71.919 8.00899 71.845 8.10268 71.7894C8.19638 71.7338 8.3004 71.6978 8.40843 71.6836H8.683C8.95226 71.7074 9.20877 71.8091 9.4212 71.9763C9.63364 72.1434 9.79282 72.3687 9.87933 72.6248L13.4291 95.5071Z" fill="#4B5150"/>
<path d="M11.212 72.9387C11.2095 73.0469 11.1857 73.1535 11.1419 73.2524C11.0981 73.3513 11.0353 73.4407 10.957 73.5154C10.8786 73.59 10.7864 73.6485 10.6855 73.6875C10.5845 73.7265 10.4769 73.7452 10.3687 73.7426L8.01527 73.5662C7.9071 73.5636 7.80047 73.5398 7.70151 73.496C7.60254 73.4523 7.51316 73.3894 7.43849 73.3111C7.36382 73.2329 7.3053 73.1406 7.2663 73.0397C7.2273 72.9388 7.20857 72.8312 7.21118 72.723L7.99567 64.3701C7.99567 63.8995 8.27023 64.0563 8.72131 64.0563H10.6825C10.7907 64.0589 10.8973 64.0827 10.9963 64.1265C11.0952 64.1702 11.1846 64.2331 11.2593 64.3114C11.3339 64.3897 11.3924 64.4819 11.4315 64.5828C11.4705 64.6837 11.4892 64.7913 11.4866 64.8995L11.212 72.9387Z" fill="#FECD31"/>
<path d="M19.6254 67.7433C19.6254 67.7433 14.5263 61.6649 12.3102 59.2335C12.1277 58.9717 11.8918 58.7516 11.618 58.5877C11.3441 58.4238 11.0386 58.3199 10.7216 58.2828C10.4046 58.2458 10.0834 58.2764 9.77909 58.3727C9.47482 58.4689 9.19444 58.6287 8.9565 58.8413C8.47654 59.2061 8.03614 59.6201 7.6425 60.0766C6.91686 60.959 7.23066 62.0374 7.9563 64.9198C8.68195 67.8021 20.1942 110.547 20.1942 110.547H21.7435L19.6254 67.7433Z" fill="#FECD31"/>
<path d="M19.3117 102.214L13.9772 106.136C13.8932 106.192 13.834 106.278 13.8121 106.377C13.7902 106.476 13.8072 106.579 13.8595 106.665L16.5856 111.548C16.6428 111.641 16.7334 111.709 16.839 111.738C16.9446 111.768 17.0574 111.755 17.1544 111.704C17.2212 111.668 17.2767 111.614 17.3148 111.549C17.3529 111.483 17.372 111.408 17.3701 111.332C17.3876 111.268 17.3876 111.2 17.3701 111.136L14.8009 106.587L19.8412 102.881C19.895 102.843 19.9392 102.794 19.9699 102.736C20.0006 102.678 20.017 102.613 20.0177 102.548C20.0461 102.465 20.0461 102.375 20.0177 102.293C19.9884 102.227 19.9425 102.17 19.8845 102.128C19.8265 102.086 19.7585 102.059 19.6871 102.051C19.6158 102.043 19.5436 102.054 19.4777 102.083C19.4119 102.111 19.3546 102.157 19.3117 102.214Z" fill="#E7A905"/>
<g style="mix-blend-mode:multiply" opacity="0.3">
<path d="M20.4099 82.2727L19.6254 67.7433C19.6254 67.7433 14.5263 61.6649 12.3102 59.2335C12.1277 58.9717 11.8918 58.7516 11.618 58.5877C11.3441 58.4238 11.0386 58.3199 10.7216 58.2828C10.4046 58.2458 10.0834 58.2764 9.77909 58.3727C9.47482 58.4689 9.19444 58.6287 8.9565 58.8413C8.47654 59.2061 8.03614 59.6201 7.6425 60.0766C6.91686 60.959 7.23066 62.0374 7.9563 64.9198C8.32893 66.4296 11.6826 78.959 14.8009 90.508L20.4099 82.2727Z" fill="#E7A905"/>
</g>
<path d="M10.6234 59.0372C10.6051 59.0873 10.5972 59.1407 10.6002 59.1939C10.6033 59.2472 10.6171 59.2993 10.641 59.347C10.6649 59.3948 10.6982 59.4371 10.739 59.4715C10.7798 59.5059 10.8272 59.5316 10.8783 59.547L23.5477 63.8215C23.5991 63.8401 23.6538 63.8482 23.7084 63.8454C23.7631 63.8425 23.8166 63.8289 23.8659 63.8051C23.9152 63.7814 23.9593 63.7481 23.9956 63.7071C24.0318 63.6662 24.0596 63.6184 24.0772 63.5666C24.0957 63.5152 24.1038 63.4605 24.101 63.4059C24.0982 63.3513 24.0845 63.2977 24.0608 63.2485C24.0371 63.1992 24.0037 63.1551 23.9628 63.1188C23.9218 63.0826 23.874 63.0548 23.8222 63.0372L11.0548 58.7627C10.963 58.7565 10.8717 58.7798 10.794 58.8292C10.7164 58.8785 10.6566 58.9515 10.6234 59.0372Z" fill="#D1D1D1"/>
<g style="mix-blend-mode:multiply" opacity="0.4">
<path d="M23.8023 63.449L11.0545 59.1744C10.9786 59.1549 10.8988 59.1554 10.8232 59.176C10.7475 59.1967 10.6785 59.2367 10.623 59.2921C10.6434 59.3511 10.677 59.4048 10.7211 59.4489C10.7653 59.4931 10.8189 59.5266 10.878 59.547L23.5473 63.8215C23.6227 63.8482 23.7044 63.8512 23.7815 63.8302C23.8586 63.8092 23.9274 63.7651 23.9788 63.7039C23.9694 63.6512 23.9488 63.6012 23.9183 63.5572C23.8879 63.5132 23.8483 63.4763 23.8023 63.449Z" fill="#D1D1D1"/>
</g>
<path d="M44.8066 71.5079C44.8066 71.5079 41.198 68.2138 40.5115 67.7432C39.8251 67.2726 39.7663 67.7432 39.5309 68.0177C39.2956 68.2922 38.1777 70.2334 38.1777 70.2334L44.8066 71.5079Z" fill="#E7A905"/>
<path d="M39.5325 67.9985L39.6698 67.822L24.1567 62.8416C24.0526 62.8093 23.9401 62.8177 23.8418 62.865C23.7436 62.9123 23.6669 62.995 23.6272 63.0965L23.4114 63.6651C23.3897 63.7137 23.3786 63.7663 23.3789 63.8195C23.3792 63.8727 23.3909 63.9252 23.4132 63.9735C23.4355 64.0218 23.4679 64.0648 23.5082 64.0995C23.5485 64.1343 23.5957 64.16 23.6468 64.1749L38.8265 69.1357L39.5325 67.9985Z" fill="#4B5150"/>
<path d="M12.212 59.2338C12.2159 59.4991 12.1405 59.7596 11.9954 59.9818C11.8504 60.2041 11.6423 60.378 11.3978 60.4813C11.1534 60.5847 10.8836 60.6127 10.6231 60.5619C10.3626 60.5111 10.1232 60.3837 9.93551 60.1961C9.74782 60.0084 9.62044 59.7691 9.56961 59.5086C9.51878 59.2481 9.54684 58.9784 9.6502 58.734C9.75356 58.4896 9.92751 58.2816 10.1498 58.1366C10.3721 57.9916 10.6326 57.9162 10.898 57.9201C11.2465 57.9201 11.5807 58.0585 11.8271 58.3048C12.0736 58.5512 12.212 58.8854 12.212 59.2338Z" fill="#D9871F"/>
<path d="M11.7803 59.2345C11.7497 59.4335 11.6488 59.615 11.4959 59.7462C11.343 59.8773 11.1482 59.9494 10.9468 59.9494C10.7454 59.9494 10.5506 59.8773 10.3977 59.7462C10.2448 59.615 10.1439 59.4335 10.1133 59.2345C10.1439 59.0354 10.2448 58.8539 10.3977 58.7228C10.5506 58.5916 10.7454 58.5195 10.9468 58.5195C11.1482 58.5195 11.343 58.5916 11.4959 58.7228C11.6488 58.8539 11.7497 59.0354 11.7803 59.2345Z" fill="#FEBD31"/>
<path d="M9.5051 72.2536C9.50897 72.4297 9.46003 72.603 9.36457 72.751C9.2691 72.8991 9.1315 73.0152 8.96946 73.0844C8.80742 73.1536 8.62838 73.1727 8.45537 73.1393C8.28237 73.1059 8.12333 73.0215 7.99874 72.8969C7.87415 72.7723 7.78968 72.6133 7.75625 72.4404C7.72283 72.2674 7.74198 72.0884 7.8112 71.9264C7.88041 71.7644 7.99653 71.6268 8.14463 71.5313C8.29273 71.4359 8.46601 71.387 8.64217 71.3908C8.86946 71.3958 9.08608 71.4883 9.24684 71.6491C9.4076 71.8098 9.5001 72.0263 9.5051 72.2536Z" fill="#D9871F"/>
<g style="mix-blend-mode:multiply" opacity="0.3">
<path d="M19.6247 67.7435L18.5656 66.4886C17.921 66.3345 17.2491 66.3345 16.6044 66.4886C16.3649 66.6108 16.158 66.7884 16.0011 67.0067C15.8442 67.225 15.7417 67.4776 15.7023 67.7435C15.3493 68.9396 16.0749 69.9004 18.2518 70.6651L19.9581 71.2729L19.6247 67.7435Z" fill="#E7A905"/>
</g>
<path d="M64.5772 88.5292C64.5772 88.5292 51.0253 76.0586 47.7305 73.3724C44.4357 70.6861 42.0822 70.2351 37.6303 69.4508C33.1784 68.6665 21.8231 66.2743 19.3519 65.8626C18.4403 65.5977 17.4781 65.5573 16.5474 65.7449C16.3102 65.8451 16.0988 65.9978 15.9289 66.1913C15.7591 66.3849 15.6353 66.6144 15.5668 66.8626C15.2138 68.0586 15.9198 69.0194 18.1164 69.7841C20.8621 70.7645 36.8262 76.6469 38.1206 77.1763C39.4018 77.5998 40.5691 78.3107 41.5331 79.2547C43.4943 80.8626 61.1451 94.4508 61.1451 94.4508L64.5772 88.5292Z" fill="#FECD31"/>
<path d="M18.1555 67.3706C18.1594 67.5459 18.111 67.7183 18.0164 67.866C17.9218 68.0137 17.7854 68.1298 17.6245 68.1996C17.4636 68.2694 17.2856 68.2897 17.1131 68.2579C16.9407 68.2261 16.7816 68.1436 16.6562 68.0211C16.5308 67.8985 16.4447 67.7413 16.4091 67.5696C16.3734 67.398 16.3897 67.2196 16.4559 67.0572C16.5221 66.8948 16.6351 66.7558 16.7807 66.658C16.9262 66.5601 17.0976 66.5079 17.273 66.5078C17.5037 66.5078 17.7252 66.598 17.8902 66.7593C18.0551 66.9205 18.1504 67.14 18.1555 67.3706Z" fill="#D9871F"/>
<path d="M43.1594 77.3697C43.0712 77.4366 42.999 77.5224 42.9481 77.6208C42.8972 77.7192 42.8689 77.8276 42.8652 77.9383L48.0036 86.8599C48.093 86.9523 48.2087 87.0151 48.335 87.0397C48.4612 87.0642 48.592 87.0494 48.7096 86.9971C48.8017 86.9436 48.8694 86.8566 48.8987 86.7542C48.9279 86.6519 48.9164 86.5421 48.8665 86.4481L43.6301 77.5461C43.5821 77.4689 43.51 77.4097 43.4248 77.3778C43.3397 77.3459 43.2463 77.343 43.1594 77.3697Z" fill="#D1D1D1"/>
<g style="mix-blend-mode:multiply" opacity="0.5">
<path d="M43.336 77.8406C43.2872 77.7592 43.2117 77.6971 43.1223 77.665C43.033 77.6328 42.9352 77.6325 42.8457 77.6641V77.9386L47.9841 86.8602C48.064 86.9297 48.1577 86.9814 48.2592 87.0119C48.3607 87.0423 48.4674 87.0507 48.5724 87.0367C48.6106 86.9423 48.6106 86.8369 48.5724 86.7425L43.336 77.8406Z" fill="#D1D1D1"/>
</g>
<path d="M59.9289 102.606L49.2796 85.9395L47.2988 86.9591L59.5171 107.547L59.9289 102.606Z" fill="#4B5150"/>
<path d="M44.7494 77.6468C44.7494 78.0681 44.582 78.472 44.2841 78.7699C43.9862 79.0677 43.5821 79.2351 43.1608 79.2351C42.7395 79.2351 42.3355 79.0677 42.0375 78.7699C41.7396 78.472 41.5723 78.0681 41.5723 77.6468C41.5723 77.2256 41.7396 76.8216 42.0375 76.5238C42.3355 76.2259 42.7395 76.0586 43.1608 76.0586C43.5821 76.0586 43.9862 76.2259 44.2841 76.5238C44.582 76.8216 44.7494 77.2256 44.7494 77.6468Z" fill="#D9871F"/>
<path d="M44.2 77.6447C44.2 77.9203 44.0905 78.1846 43.8955 78.3795C43.7006 78.5744 43.4362 78.6839 43.1605 78.6839C42.8849 78.6839 42.6205 78.5744 42.4255 78.3795C42.2306 78.1846 42.1211 77.9203 42.1211 77.6447C42.1211 77.3691 42.2306 77.1047 42.4255 76.9098C42.6205 76.715 42.8849 76.6055 43.1605 76.6055C43.4362 76.6055 43.7006 76.715 43.8955 76.9098C44.0905 77.1047 44.2 77.3691 44.2 77.6447Z" fill="#FEBD31"/>
<path d="M22.3703 110.568C22.3703 110.832 22.2921 111.089 22.1456 111.309C21.9991 111.528 21.7908 111.699 21.5471 111.8C21.3034 111.901 21.0353 111.927 20.7766 111.876C20.5179 111.824 20.2802 111.697 20.0937 111.511C19.9072 111.324 19.7802 111.087 19.7288 110.828C19.6773 110.569 19.7037 110.301 19.8046 110.058C19.9056 109.814 20.0765 109.606 20.2958 109.459C20.5151 109.313 20.773 109.235 21.0367 109.235C21.2126 109.232 21.3872 109.265 21.5502 109.331C21.7132 109.397 21.8613 109.495 21.9856 109.619C22.11 109.743 22.2081 109.892 22.2742 110.054C22.3403 110.217 22.373 110.392 22.3703 110.568Z" fill="#21201B"/>
<path d="M21.88 110.566C21.88 110.733 21.8305 110.896 21.7379 111.034C21.6452 111.173 21.5135 111.281 21.3594 111.345C21.2053 111.409 21.0357 111.425 20.8721 111.393C20.7086 111.36 20.5583 111.28 20.4403 111.162C20.3224 111.044 20.2421 110.894 20.2096 110.73C20.177 110.567 20.1937 110.397 20.2576 110.243C20.3214 110.089 20.4295 109.957 20.5682 109.865C20.7068 109.772 20.8699 109.723 21.0367 109.723C21.1474 109.723 21.2571 109.744 21.3594 109.787C21.4617 109.829 21.5547 109.891 21.633 109.97C21.7113 110.048 21.7734 110.141 21.8158 110.243C21.8582 110.345 21.88 110.455 21.88 110.566Z" fill="#8C8C8C"/>
<path d="M18.3515 111.821C18.3554 112.059 18.288 112.293 18.1581 112.493C18.0281 112.693 17.8415 112.849 17.6221 112.942C17.4027 113.035 17.1606 113.06 16.9267 113.015C16.6928 112.969 16.4779 112.855 16.3094 112.686C16.1409 112.518 16.0266 112.303 15.981 112.069C15.9355 111.835 15.9608 111.593 16.0538 111.374C16.1468 111.155 16.3031 110.968 16.5028 110.838C16.7026 110.708 16.9365 110.641 17.1748 110.645C17.4868 110.645 17.7862 110.769 18.0068 110.989C18.2275 111.21 18.3515 111.509 18.3515 111.821Z" fill="#21201B"/>
<path d="M17.938 111.823C17.9406 111.925 17.9228 112.027 17.8855 112.122C17.8483 112.217 17.7923 112.304 17.721 112.377C17.6498 112.45 17.5645 112.508 17.4704 112.548C17.3763 112.587 17.2753 112.608 17.1731 112.608C16.9651 112.608 16.7656 112.525 16.6184 112.378C16.4713 112.231 16.3887 112.031 16.3887 111.823C16.3887 111.615 16.4713 111.416 16.6184 111.269C16.7656 111.122 16.9651 111.039 17.1731 111.039C17.2753 111.039 17.3763 111.059 17.4704 111.099C17.5645 111.139 17.6498 111.197 17.721 111.27C17.7923 111.343 17.8483 111.43 17.8855 111.525C17.9228 111.62 17.9406 111.721 17.938 111.823Z" fill="#8C8C8C"/>
<path d="M14.9775 106.351C14.9775 106.514 14.9292 106.673 14.8387 106.808C14.7482 106.944 14.6195 107.049 14.469 107.112C14.3185 107.174 14.1529 107.19 13.9931 107.159C13.8333 107.127 13.6865 107.048 13.5713 106.933C13.4561 106.818 13.3777 106.671 13.3459 106.512C13.3141 106.352 13.3304 106.186 13.3928 106.036C13.4551 105.885 13.5607 105.757 13.6961 105.666C13.8316 105.576 13.9909 105.527 14.1538 105.527C14.3723 105.527 14.5818 105.614 14.7362 105.769C14.8907 105.923 14.9775 106.132 14.9775 106.351Z" fill="#D9871F"/>
<path d="M14.684 106.352C14.684 106.456 14.653 106.559 14.5948 106.646C14.5366 106.733 14.4539 106.801 14.3572 106.841C14.2604 106.881 14.1539 106.891 14.0512 106.871C13.9485 106.85 13.8542 106.8 13.7801 106.726C13.706 106.652 13.6556 106.558 13.6352 106.455C13.6147 106.352 13.6252 106.246 13.6653 106.149C13.7054 106.052 13.7733 105.97 13.8603 105.911C13.9474 105.853 14.0498 105.822 14.1545 105.822C14.295 105.822 14.4297 105.878 14.529 105.977C14.6283 106.077 14.684 106.211 14.684 106.352Z" fill="#FEBD31"/>
<path d="M20.6051 102.468C20.6051 102.647 20.5522 102.821 20.453 102.969C20.3539 103.118 20.213 103.233 20.0482 103.302C19.8833 103.37 19.7019 103.388 19.5269 103.353C19.3519 103.318 19.1912 103.232 19.065 103.106C18.9389 102.98 18.8529 102.819 18.8181 102.644C18.7833 102.469 18.8012 102.288 18.8695 102.123C18.9377 101.958 19.0534 101.818 19.2017 101.718C19.3501 101.619 19.5245 101.566 19.7029 101.566C19.8214 101.566 19.9387 101.59 20.0482 101.635C20.1576 101.68 20.2571 101.747 20.3408 101.831C20.4246 101.914 20.4911 102.014 20.5364 102.123C20.5817 102.233 20.6051 102.35 20.6051 102.468Z" fill="#D9871F"/>
<path d="M19.7229 103.018C20.0153 103.018 20.2524 102.781 20.2524 102.488C20.2524 102.196 20.0153 101.959 19.7229 101.959C19.4304 101.959 19.1934 102.196 19.1934 102.488C19.1934 102.781 19.4304 103.018 19.7229 103.018Z" fill="#FEBD31"/>
<g style="mix-blend-mode:multiply" opacity="0.3">
<path d="M57.8301 91.8611L61.223 94.469L64.5766 88.5866L57.8301 82.4102V91.8611Z" fill="#E7A905"/>
</g>
<path d="M81.0297 111.547H61.4766V113.959H81.0297V111.547Z" fill="#121312"/>
<path d="M61.6352 111.647H60.8115C60.5272 111.65 60.2456 111.591 59.9863 111.475C59.7269 111.359 59.4959 111.187 59.3094 110.973C59.1228 110.758 58.9852 110.506 58.9059 110.233C58.8266 109.96 58.8077 109.673 58.8503 109.392V99.7253C59.123 96.2827 59.8348 92.8892 60.9684 89.6272C61.5372 87.9213 61.8706 87.0586 64.2044 87.0586H74.7752C77.0698 87.0586 77.4425 88.3527 77.4425 90.1174V111.686L61.6352 111.647Z" fill="#E7A905"/>
<path d="M58.8503 108.764V109.391C58.8077 109.672 58.8266 109.959 58.9059 110.232C58.9852 110.505 59.1228 110.758 59.3094 110.972C59.4959 111.186 59.7269 111.358 59.9863 111.474C60.2456 111.591 60.5272 111.649 60.8115 111.646H61.596L77.4033 111.783V108.764H58.8503Z" fill="#A3853D"/>
<path d="M98.9755 108.764H77.4023V111.783H98.9755C99.1276 111.802 99.282 111.79 99.4288 111.746C99.5756 111.702 99.7116 111.627 99.8279 111.528C99.9443 111.428 100.039 111.305 100.105 111.167C100.17 111.028 100.207 110.878 100.211 110.724V108.764H98.9755Z" fill="#836A30"/>
<path d="M74.8719 88.3711H64.1441C63.2028 88.3711 62.4967 88.5476 61.928 90.3319C60.9349 93.2074 60.2768 96.1879 59.9668 99.2142V105.783C59.9668 106.606 60.3786 106.606 60.8493 106.606H76.1074V90.0182C76.029 89.1554 75.8917 88.3711 74.8719 88.3711Z" fill="#4A7085"/>
<path d="M92.9941 113.469H49.0437C48.1703 113.421 47.2963 113.551 46.4751 113.852C45.6538 114.153 44.9026 114.618 44.2673 115.219C43.632 115.82 43.1259 116.544 42.7801 117.347C42.4343 118.151 42.2559 119.016 42.2559 119.89C42.2559 120.765 42.4343 121.63 42.7801 122.433C43.1259 123.237 43.632 123.961 44.2673 124.562C44.9026 125.163 45.6538 125.628 46.4751 125.929C47.2963 126.23 48.1703 126.36 49.0437 126.312H92.9353C94.5774 126.221 96.1223 125.505 97.2527 124.311C98.383 123.116 99.0129 121.535 99.0129 119.89C99.0129 118.246 98.383 116.664 97.2527 115.47C96.1223 114.276 94.5774 113.56 92.9353 113.469H92.9941ZM92.9941 125.233H49.0437C47.6133 125.233 46.2414 124.665 45.23 123.654C44.2186 122.643 43.6504 121.271 43.6504 119.841C43.6504 118.411 44.2186 117.04 45.23 116.029C46.2414 115.017 47.6133 114.449 49.0437 114.449H92.9353C94.3657 114.449 95.7374 115.017 96.7489 116.029C97.7603 117.04 98.3286 118.411 98.3286 119.841C98.3286 121.271 97.7603 122.643 96.7489 123.654C95.7374 124.665 94.3657 125.233 92.9353 125.233H92.9941Z" fill="#383838"/>
<path d="M63.3594 113.469H64.1831V112.842H63.3594V113.469ZM60.4764 113.469H61.3001V112.842H60.4764V113.469ZM66.2424 113.469H67.0661V112.842H66.2424V113.469ZM69.1253 113.469H69.949V112.842H69.1253V113.469ZM45.5909 113.783L45.9047 114.312C46.1716 114.166 46.4467 114.035 46.7284 113.92L46.4931 113.352C46.1832 113.475 45.8819 113.62 45.5909 113.783ZM48.925 112.842V113.469H49.7683V112.842H48.9053H48.925ZM72.0083 113.469H72.832V112.842H72.0083V113.469ZM51.8275 113.469H52.6512V112.842H51.8275V113.469ZM54.7105 113.469H55.5342V112.842H54.7105V113.469ZM57.5935 113.469H58.4172V112.842H57.5935V113.469ZM92.444 112.881V113.489H93.2677V112.842L92.444 112.881ZM95.8564 113.469L95.6211 114.018L96.4056 114.45L96.739 113.94C96.4622 113.752 96.1664 113.595 95.8564 113.469ZM89.2864 113.469H90.1101V112.842H89.2864V113.469ZM43.6886 115.43C43.4925 115.685 43.2767 115.959 43.1002 116.234L43.6494 116.567C43.8011 116.307 43.9716 116.058 44.1593 115.822L43.6886 115.43ZM98.6021 115.665L98.1118 116.038C98.2978 116.278 98.4619 116.534 98.6021 116.803L99.1513 116.489C98.9551 116.156 98.7786 115.861 98.5825 115.607L98.6021 115.665ZM100.053 119.822C100.071 119.456 100.065 119.089 100.034 118.724H99.4258C99.4461 119.024 99.4461 119.326 99.4258 119.626L100.053 119.822ZM74.9109 113.528H75.7346V112.842H74.9109V113.528ZM77.7742 113.528H78.5979V112.842H77.7742V113.528ZM80.6571 113.528H81.4808V112.842H80.6571V113.528ZM83.5401 113.528H84.3442V112.842H83.5205L83.5401 113.528ZM86.4231 113.528H87.2468V112.842H86.4231V113.528ZM56.103 126.92H56.8874V126.312H56.0637L56.103 126.92ZM84.9129 126.92H85.7367V126.312H84.9129V126.92ZM73.3811 126.92H74.2048V126.312H73.3811V126.92ZM76.2641 126.92H77.0878V126.312H76.2641V126.92ZM79.147 126.92H79.9707V126.312H79.147V126.92ZM87.7959 126.92H88.6196V126.312H87.7959V126.92ZM82.03 126.92H82.8537V126.312H82.03V126.92ZM98.6806 122.842L99.2297 123.136C99.385 122.847 99.5162 122.545 99.6219 122.234L99.0336 122.018C98.9399 122.302 98.8217 122.578 98.6806 122.842ZM96.5821 125.195L96.9351 125.724C97.2097 125.532 97.4718 125.322 97.7196 125.097L97.2881 124.607C97.0719 124.824 96.8355 125.021 96.5821 125.195ZM93.6207 126.273V126.881C93.9515 126.858 94.2796 126.805 94.6013 126.724L94.4444 126.116C94.1751 126.193 93.8994 126.246 93.6207 126.273ZM90.6789 126.92H91.5026V126.312H90.6789V126.92ZM64.7518 126.92H65.5755V126.312H64.7322L64.7518 126.92ZM50.337 126.92H51.1607V126.312H50.337V126.92ZM47.0814 126.567C47.4034 126.66 47.7309 126.732 48.062 126.783V126.156C47.7644 126.116 47.4696 126.057 47.1795 125.979L47.0814 126.567ZM44.1004 124.822C44.3371 125.059 44.5929 125.275 44.8653 125.469L45.2183 124.959L44.5319 124.391L44.1004 124.822ZM53.1612 126.783H53.9849V126.175H53.1612V126.783ZM42.2961 121.803C42.4033 122.123 42.5277 122.437 42.6688 122.744L43.2179 122.469C43.093 122.196 42.9881 121.914 42.9041 121.626L42.2961 121.803ZM42.7472 118.469L42.1392 118.352C42.0649 118.68 42.019 119.015 42.002 119.352H42.6295C42.6749 119.1 42.7338 118.852 42.8061 118.607L42.7472 118.469ZM67.576 126.783H68.3997V126.175H67.576V126.783ZM70.4589 126.783H71.2826V126.175H70.6158L70.4589 126.783ZM61.81 126.783H62.771V126.175H61.9473L61.81 126.783ZM58.9271 126.783H59.7508V126.175H58.9271V126.783Z" fill="#383838"/>
<path d="M49.0437 114.488C47.6133 114.488 46.2415 115.056 45.23 116.068C44.2186 117.079 43.6504 118.45 43.6504 119.88C43.6504 121.311 44.2186 122.682 45.23 123.693C46.2415 124.705 47.6133 125.273 49.0437 125.273H92.9353C94.3657 125.273 95.7375 124.705 96.7489 123.693C97.7604 122.682 98.3286 121.311 98.3286 119.88C98.3286 118.45 97.7604 117.079 96.7489 116.068C95.7375 115.056 94.3657 114.488 92.9353 114.488H49.0437Z" fill="#121312"/>
<path d="M62.2232 123.409C62.2232 123.75 62.122 124.084 61.9323 124.368C61.7427 124.652 61.4731 124.873 61.1578 125.003C60.8424 125.134 60.4954 125.168 60.1606 125.102C59.8258 125.035 59.5183 124.871 59.277 124.629C59.0356 124.388 58.8712 124.081 58.8046 123.746C58.7381 123.411 58.7722 123.064 58.9029 122.749C59.0335 122.434 59.2547 122.164 59.5385 121.975C59.8223 121.785 60.156 121.684 60.4973 121.684C60.7247 121.681 60.9503 121.724 61.1609 121.81C61.3715 121.895 61.5628 122.022 61.7236 122.183C61.8843 122.344 62.0114 122.535 62.0972 122.746C62.183 122.956 62.2258 123.182 62.2232 123.409Z" fill="#B3B3B4"/>
<path d="M66.44 123.409C66.44 123.75 66.3388 124.084 66.1491 124.368C65.9595 124.652 65.69 124.873 65.3746 125.003C65.0592 125.134 64.7122 125.168 64.3774 125.102C64.0426 125.035 63.7352 124.871 63.4938 124.629C63.2524 124.388 63.088 124.081 63.0214 123.746C62.9549 123.411 62.989 123.064 63.1197 122.749C63.2503 122.434 63.4715 122.164 63.7553 121.975C64.0391 121.785 64.3728 121.684 64.7141 121.684C64.9415 121.681 65.1671 121.724 65.3777 121.81C65.5883 121.895 65.7796 122.022 65.9403 122.183C66.1011 122.344 66.2282 122.535 66.314 122.746C66.3998 122.956 66.4426 123.182 66.44 123.409Z" fill="#B3B3B4"/>
<path d="M70.6158 123.409C70.6158 123.75 70.5146 124.084 70.3249 124.368C70.1353 124.652 69.8657 124.873 69.5504 125.003C69.235 125.134 68.888 125.168 68.5532 125.102C68.2184 125.035 67.9109 124.871 67.6695 124.629C67.4282 124.388 67.2638 124.081 67.1972 123.746C67.1306 123.411 67.1648 123.064 67.2954 122.749C67.4261 122.434 67.6473 122.164 67.9311 121.975C68.2149 121.785 68.5486 121.684 68.8899 121.684C69.1173 121.681 69.3429 121.724 69.5535 121.81C69.764 121.895 69.9553 122.022 70.1161 122.183C70.2769 122.344 70.4039 122.535 70.4897 122.746C70.5756 122.956 70.6184 123.182 70.6158 123.409Z" fill="#B3B3B4"/>
<path d="M74.8716 123.409C74.8716 123.75 74.7704 124.084 74.5808 124.368C74.3911 124.652 74.1216 124.873 73.8062 125.003C73.4909 125.134 73.1439 125.168 72.8091 125.102C72.4743 125.035 72.1668 124.871 71.9254 124.629C71.684 124.388 71.5197 124.081 71.4531 123.746C71.3865 123.411 71.4207 123.064 71.5513 122.749C71.6819 122.434 71.9031 122.164 72.1869 121.975C72.4708 121.785 72.8044 121.684 73.1458 121.684C73.3731 121.681 73.5988 121.724 73.8093 121.81C74.0199 121.895 74.2112 122.022 74.372 122.183C74.5328 122.344 74.6598 122.535 74.7456 122.746C74.8314 122.956 74.8743 123.182 74.8716 123.409Z" fill="#B3B3B4"/>
<path d="M79.0884 123.409C79.043 123.833 78.8427 124.224 78.5259 124.509C78.2091 124.794 77.7983 124.951 77.3723 124.951C76.9464 124.951 76.5355 124.794 76.2187 124.509C75.9019 124.224 75.7016 123.833 75.6563 123.409C75.6305 123.168 75.6557 122.925 75.7302 122.695C75.8047 122.464 75.9268 122.252 76.0887 122.072C76.2505 121.892 76.4484 121.748 76.6696 121.65C76.8908 121.551 77.1302 121.5 77.3723 121.5C77.6145 121.5 77.8539 121.551 78.0751 121.65C78.2962 121.748 78.4941 121.892 78.656 122.072C78.8178 122.252 78.94 122.464 79.0145 122.695C79.089 122.925 79.1142 123.168 79.0884 123.409Z" fill="#B3B3B4"/>
<path d="M83.3052 123.409C83.2598 123.833 83.0595 124.224 82.7427 124.509C82.4259 124.794 82.015 124.951 81.5891 124.951C81.1632 124.951 80.7523 124.794 80.4355 124.509C80.1187 124.224 79.9184 123.833 79.8731 123.409C79.8473 123.168 79.8725 122.925 79.947 122.695C80.0215 122.464 80.1436 122.252 80.3055 122.072C80.4673 121.892 80.6652 121.748 80.8864 121.65C81.1076 121.551 81.347 121.5 81.5891 121.5C81.8313 121.5 82.0707 121.551 82.2919 121.65C82.513 121.748 82.711 121.892 82.8728 122.072C83.0347 122.252 83.1568 122.464 83.2313 122.695C83.3058 122.925 83.331 123.168 83.3052 123.409Z" fill="#B3B3B4"/>
<g style="mix-blend-mode:multiply" opacity="0.4">
<path d="M81.5995 121.684C81.1434 121.689 80.7073 121.872 80.3848 122.195C80.0622 122.517 79.8787 122.953 79.8736 123.409C79.8531 123.572 79.8531 123.737 79.8736 123.899H83.1488C83.1787 123.737 83.1787 123.571 83.1488 123.409C83.1511 122.98 82.9937 122.566 82.7073 122.247C82.4209 121.928 82.026 121.727 81.5995 121.684ZM60.497 121.684C60.0427 121.689 59.6087 121.873 59.2893 122.196C58.9699 122.519 58.7907 122.955 58.7908 123.409C58.7703 123.572 58.7703 123.737 58.7908 123.899H62.066C62.0865 123.737 62.0865 123.572 62.066 123.409C62.0678 122.977 61.9076 122.561 61.6171 122.241C61.3267 121.922 60.927 121.723 60.497 121.684ZM64.7136 121.684C64.2593 121.689 63.8253 121.873 63.5059 122.196C63.1865 122.519 63.0073 122.955 63.0073 123.409C62.9868 123.572 62.9868 123.737 63.0073 123.899H66.2825C66.303 123.737 66.303 123.572 66.2825 123.409C66.2848 122.98 66.1274 122.566 65.841 122.247C65.5546 121.928 65.1597 121.727 64.7332 121.684H64.7136ZM77.3829 121.684C76.9252 121.684 76.4862 121.865 76.1626 122.189C75.8389 122.513 75.6571 122.951 75.6571 123.409C75.6366 123.572 75.6366 123.737 75.6571 123.899H78.9323C78.9528 123.737 78.9528 123.572 78.9323 123.409C78.9345 122.98 78.7771 122.566 78.4907 122.247C78.2043 121.928 77.8094 121.727 77.3829 121.684ZM68.9302 121.684C68.4758 121.689 68.0419 121.873 67.7225 122.196C67.403 122.519 67.2239 122.955 67.2239 123.409C67.2034 123.572 67.2034 123.737 67.2239 123.899H70.6168C70.6373 123.737 70.6373 123.572 70.6168 123.409C70.6169 122.958 70.4405 122.525 70.1252 122.203C69.81 121.88 69.3811 121.694 68.9302 121.684ZM73.1467 121.684C72.6924 121.689 72.2585 121.873 71.939 122.196C71.6196 122.519 71.4405 122.955 71.4405 123.409C71.42 123.572 71.42 123.737 71.4405 123.899H74.7157C74.7362 123.737 74.7362 123.572 74.7157 123.409C74.7175 122.977 74.5574 122.561 74.2669 122.241C73.9764 121.922 73.5767 121.723 73.1467 121.684Z" fill="#B3B3B4"/>
</g>
<path d="M50.7505 116.352C50.2557 116.299 49.7554 116.352 49.2821 116.505C48.8088 116.659 48.3731 116.91 48.0032 117.243C47.6334 117.576 47.3376 117.983 47.1352 118.437C46.9328 118.892 46.8281 119.384 46.8281 119.881C46.8281 120.379 46.9328 120.87 47.1352 121.325C47.3376 121.779 47.6334 122.186 48.0032 122.519C48.3731 122.852 48.8088 123.103 49.2821 123.257C49.7554 123.41 50.2557 123.463 50.7505 123.41H91.3473C91.8422 123.463 92.3425 123.41 92.8158 123.257C93.289 123.103 93.7248 122.852 94.0946 122.519C94.4645 122.186 94.7602 121.779 94.9627 121.325C95.1651 120.87 95.2697 120.379 95.2697 119.881C95.2697 119.384 95.1651 118.892 94.9627 118.437C94.7602 117.983 94.4645 117.576 94.0946 117.243C93.7248 116.91 93.289 116.659 92.8158 116.505C92.3425 116.352 91.8422 116.299 91.3473 116.352H50.7505Z" fill="#696969"/>
<path d="M53.4767 119.88C53.4806 120.73 53.232 121.562 52.7624 122.271C52.2929 122.98 51.6234 123.533 50.839 123.861C50.0545 124.189 49.1903 124.277 48.3559 124.114C47.5214 123.95 46.7543 123.543 46.1517 122.943C45.549 122.343 45.138 121.578 44.9707 120.745C44.8034 119.911 44.8873 119.047 45.2118 118.261C45.5363 117.475 46.0868 116.803 46.7935 116.331C47.5002 115.858 48.3314 115.605 49.1817 115.605C50.3174 115.605 51.4069 116.055 52.2118 116.856C53.0167 117.657 53.4715 118.744 53.4767 119.88Z" fill="#B3B3B4"/>
<path d="M52.3188 119.879C52.3188 120.5 52.1347 121.106 51.79 121.622C51.4452 122.138 50.9551 122.54 50.3817 122.778C49.8083 123.015 49.1774 123.077 48.5687 122.956C47.96 122.835 47.4009 122.537 46.962 122.098C46.5232 121.659 46.2243 121.1 46.1033 120.491C45.9822 119.883 46.0443 119.252 46.2818 118.679C46.5193 118.106 46.9215 117.616 47.4376 117.271C47.9536 116.926 48.5603 116.742 49.1809 116.742C50.0131 116.742 50.8112 117.073 51.3997 117.661C51.9882 118.249 52.3188 119.047 52.3188 119.879Z" fill="#6B6B6B"/>
<path d="M91.3459 116.352H72.0673L67.5762 123.41H91.3459C91.8408 123.463 92.341 123.41 92.8143 123.257C93.2876 123.103 93.7233 122.852 94.0932 122.519C94.4631 122.186 94.7588 121.779 94.9612 121.325C95.1637 120.87 95.2683 120.379 95.2683 119.881C95.2683 119.384 95.1637 118.892 94.9612 118.437C94.7588 117.983 94.4631 117.576 94.0932 117.243C93.7233 116.91 93.2876 116.659 92.8143 116.505C92.341 116.352 91.8408 116.299 91.3459 116.352Z" fill="#4A4A4A"/>
<path d="M50.7892 117.215L47.4355 122.489C47.9516 122.836 48.5594 123.02 49.181 123.019C50.0133 123.019 50.8114 122.688 51.3999 122.1C51.9883 121.512 52.3189 120.714 52.3189 119.881C52.3181 119.342 52.1765 118.813 51.9082 118.345C51.64 117.877 51.2542 117.488 50.7892 117.215Z" fill="#4A4A4A"/>
<path d="M97.1916 119.88C97.1954 120.73 96.9468 121.562 96.4773 122.271C96.0077 122.98 95.3383 123.533 94.5538 123.861C93.7693 124.189 92.9052 124.277 92.0707 124.114C91.2363 123.95 90.4691 123.543 89.8665 122.943C89.2639 122.343 88.8529 121.578 88.6855 120.745C88.5182 119.911 88.6021 119.047 88.9266 118.261C89.2511 117.475 89.8016 116.803 90.5083 116.331C91.2151 115.858 92.0462 115.605 92.8965 115.605C94.0323 115.605 95.1218 116.055 95.9267 116.856C96.7316 117.657 97.1864 118.744 97.1916 119.88Z" fill="#B3B3B4"/>
<path d="M96.1118 119.879C96.1118 120.5 95.9277 121.106 95.5829 121.622C95.2381 122.138 94.7481 122.54 94.1747 122.778C93.6013 123.015 92.9704 123.077 92.3617 122.956C91.753 122.835 91.1939 122.537 90.755 122.098C90.3162 121.659 90.0173 121.1 89.8962 120.491C89.7752 119.883 89.8373 119.252 90.0748 118.679C90.3123 118.106 90.7145 117.616 91.2305 117.271C91.7466 116.926 92.3532 116.742 92.9738 116.742C93.8061 116.742 94.6042 117.073 95.1927 117.661C95.7812 118.249 96.1118 119.047 96.1118 119.879Z" fill="#6B6B6B"/>
<path d="M94.4064 117.137L91.0527 122.411C91.5894 122.8 92.2336 123.012 92.8963 123.019C93.5912 123.017 94.2657 122.785 94.8142 122.358C95.3626 121.931 95.7539 121.335 95.9267 120.662C96.0994 119.989 96.0439 119.278 95.7687 118.64C95.4936 118.002 95.0144 117.473 94.4064 117.137Z" fill="#4A4A4A"/>
<g style="mix-blend-mode:multiply" opacity="0.7">
<path d="M76.0291 94.6075C75.5388 94.4898 74.7151 95.1369 74.3229 96.1957C73.7541 97.784 72.9893 101.215 72.9893 101.215H68.4981C67.3214 101.215 66.988 101.568 66.988 101.862C66.988 102.157 66.988 102.764 67.4587 102.764H68.9688V103.039C68.4614 103.208 68.0102 103.513 67.6644 103.921C67.3185 104.329 67.0914 104.824 67.0076 105.353H62.3988L64.7326 99.1173L64.3796 98.0977L65.4975 96.9604L67.1449 97.8036L67.3802 97.6467L64.458 94.7447L64.2031 95.0977L64.8699 96.3526L63.7128 97.5095L62.4576 96.6663L59.9473 98.8232C59.9473 98.9408 59.9473 99.0781 59.9473 99.2153V105.784C59.9473 106.608 60.3591 106.607 60.8298 106.607H75.2054L75.4604 106.039L75.3231 101.47C75.3231 101.47 75.7545 99.5095 76.0879 97.5487L76.0291 94.6075Z" fill="#4A7085"/>
</g>
<path d="M81.9516 96.6836H91.8753L93.3266 100.546L80.4219 99.7816L81.9516 96.6836Z" fill="#383838"/>
<path d="M100.211 108.763V103.822C100.177 102.907 99.7983 102.039 99.1509 101.392C98.5034 100.744 97.6351 100.366 96.7201 100.332C93.9352 99.8806 81.9327 98.6845 78.6379 98.3708C75.343 98.0571 74.0879 99.7825 74.0879 102.292V108.665L100.211 108.763Z" fill="#E7A905"/>
<path d="M80.0499 98.5277L78.6379 98.4101C75.343 98.1356 74.0879 99.8219 74.0879 102.332V108.704H79.9715L80.0499 98.5277Z" fill="#FECD31"/>
<path d="M89.2686 103.293H81.4238C81.4238 103.012 81.5354 102.743 81.734 102.545C81.9326 102.346 82.202 102.234 82.4829 102.234H88.2684C88.5493 102.234 88.8187 102.346 89.0173 102.545C89.2159 102.743 89.3274 103.012 89.3274 103.293H89.2686Z" fill="#FECD31"/>
<path d="M89.2686 105.137H81.4238C81.429 104.859 81.5428 104.595 81.7409 104.401C81.9389 104.206 82.2054 104.098 82.4829 104.098H88.2684C88.5459 104.098 88.8124 104.206 89.0104 104.401C89.2085 104.595 89.3223 104.859 89.3274 105.137H89.2686Z" fill="#FECD31"/>
<path d="M89.2686 106.959H81.4238C81.4238 106.678 81.5354 106.409 81.734 106.211C81.9326 106.012 82.202 105.9 82.4829 105.9H88.2684C88.5493 105.9 88.8187 106.012 89.0173 106.211C89.2159 106.409 89.3274 106.678 89.3274 106.959H89.2686Z" fill="#FECD31"/>
<path d="M97.1706 102.703H92.1303C91.6754 102.703 91.3066 103.072 91.3066 103.527V105.84C91.3066 106.295 91.6754 106.664 92.1303 106.664H97.1706C97.6255 106.664 97.9943 106.295 97.9943 105.84V103.527C97.9943 103.072 97.6255 102.703 97.1706 102.703Z" fill="#38332C"/>
<g style="mix-blend-mode:multiply">
<path d="M97.171 102.705H96.112L93.582 106.627H97.2495C97.4679 106.627 97.6774 106.54 97.8319 106.386C97.9864 106.231 98.0732 106.022 98.0732 105.803V103.529C98.0769 103.413 98.0554 103.297 98.0103 103.19C97.9651 103.084 97.8974 102.988 97.8116 102.909C97.7259 102.831 97.6243 102.772 97.5137 102.737C97.4031 102.702 97.2862 102.691 97.171 102.705Z" fill="#38332C"/>
</g>
<g style="mix-blend-mode:screen" opacity="0.7">
<path d="M68.4003 88.3712L60.3594 106.646H63.9484L71.9893 88.3516L68.4003 88.3712ZM65.9292 88.3712L59.8887 102.097V105.293L67.3412 88.4104L65.9292 88.3712Z" fill="#4A7085"/>
</g>
<g style="mix-blend-mode:screen" opacity="0.4">
<path d="M34.1584 68.8222L29.8438 74.0967L32.5698 75.1163L37.2767 69.4105L34.1584 68.8222ZM31.5696 68.332L27.4707 73.2536L28.3729 73.5869L32.511 68.5281L31.5696 68.332Z" fill="#FECD31"/>
</g>
</g>
</g>
<defs>
<linearGradient id="paint0_linear_12015_10985" x1="76.1897" y1="5.27734" x2="77.5503" y2="140.915" gradientUnits="userSpaceOnUse">
<stop stop-color="#FED978"/>
<stop offset="1" stop-color="#FAC63E"/>
</linearGradient>
<clipPath id="clip0_12015_10985">
<rect width="144" height="141.56" fill="white" transform="translate(0.710938 0.96875)"/>
</clipPath>
<clipPath id="clip1_12015_10985">
<rect width="93" height="69" fill="white" transform="translate(7.21094 57.9199)"/>
</clipPath>
</defs>
</svg>
